<svg version="1.1" viewBox="0.0 0.0 649.5170603674541 311.20472440944883" fill="none" stroke="none" stroke-linecap="square" stroke-miterlimit="10" xmlns:xlink="http://www.w3.org/1999/xlink" xmlns="http://www.w3.org/2000/svg"><clipPath id="p.0"><path d="m0 0l649.5171 0l0 311.2047l-649.5171 0l0 -311.2047z" clip-rule="nonzero"/></clipPath><g clip-path="url(#p.0)"><path fill="#000000" fill-opacity="0.0" d="m0 0l649.5171 0l0 311.2047l-649.5171 0z" fill-rule="evenodd"/><path fill="#d0e0e3" d="m482.5092 12.274962l0 0c0 -6.7792745 5.495697 -12.274962 12.274963 -12.274962l143.07211 0c3.2555542 0 6.3777466 1.2932513 8.679749 3.5952532c2.302002 2.3020022 3.5952148 5.4241867 3.5952148 8.679709l0 170.85165c0 6.7792664 -5.4956665 12.274963 -12.274963 12.274963l-143.07211 0c-6.7792664 0 -12.274963 -5.495697 -12.274963 -12.274963z" fill-rule="evenodd"/><path fill="#0c343d" d="m531.99384 30.515211l0 -13.25l2.6875 0l0 11.0l6.703125 0l0 2.25l-9.390625 0zm13.208496 -6.71875l-2.328125 -0.421875q0.40625 -1.40625 1.359375 -2.078125q0.953125 -0.671875 2.84375 -0.671875q1.703125 0 2.546875 0.40625q0.84375 0.40625 1.171875 1.03125q0.34375 0.625 0.34375 2.28125l-0.015625 3.0q0 1.265625 0.109375 1.875q0.125 0.609375 0.46875 1.296875l-2.53125 0q-0.109375 -0.25 -0.25 -0.75q-0.0625 -0.234375 -0.09375 -0.3125q-0.65625 0.640625 -1.40625 0.96875q-0.734375 0.3125 -1.59375 0.3125q-1.484375 0 -2.34375 -0.8125q-0.859375 -0.8125 -0.859375 -2.046875q0 -0.828125 0.390625 -1.46875q0.390625 -0.640625 1.09375 -0.96875q0.703125 -0.34375 2.03125 -0.609375q1.796875 -0.328125 2.484375 -0.625l0 -0.25q0 -0.75 -0.359375 -1.0625q-0.359375 -0.3125 -1.375 -0.3125q-0.6875 0 -1.078125 0.28125q-0.375 0.265625 -0.609375 0.9375zm3.421875 2.078125q-0.484375 0.15625 -1.5625 0.390625q-1.0625 0.21875 -1.390625 0.4375q-0.5 0.359375 -0.5 0.90625q0 0.53125 0.40625 0.9375q0.40625 0.390625 1.015625 0.390625q0.703125 0 1.328125 -0.46875q0.46875 -0.34375 0.609375 -0.84375q0.09375 -0.328125 0.09375 -1.25l0 -0.5zm4.8444214 -5.03125l2.359375 0l0 1.3125q1.265625 -1.53125 3.015625 -1.53125q0.9375 0 1.609375 0.390625q0.6875 0.375 1.125 1.140625q0.640625 -0.765625 1.375 -1.140625q0.75 -0.390625 1.578125 -0.390625q1.0625 0 1.796875 0.4375q0.75 0.421875 1.109375 1.265625q0.265625 0.625 0.265625 2.0l0 6.1875l-2.5625 0l0 -5.53125q0 -1.4375 -0.265625 -1.859375q-0.34375 -0.546875 -1.09375 -0.546875q-0.53125 0 -1.015625 0.328125q-0.46875 0.328125 -0.671875 0.96875q-0.203125 0.625 -0.203125 2.0l0 4.640625l-2.5625 0l0 -5.296875q0 -1.421875 -0.140625 -1.828125q-0.140625 -0.40625 -0.421875 -0.609375q-0.28125 -0.203125 -0.78125 -0.203125q-0.59375 0 -1.0625 0.328125q-0.46875 0.3125 -0.6875 0.921875q-0.203125 0.59375 -0.203125 1.984375l0 4.703125l-2.5625 0l0 -9.671875zm16.68219 9.671875l0 -13.359375l2.5625 0l0 4.8125q1.171875 -1.34375 2.796875 -1.34375q1.765625 0 2.921875 1.28125q1.15625 1.28125 1.15625 3.671875q0 2.484375 -1.1875 3.828125q-1.171875 1.328125 -2.859375 1.328125q-0.828125 0 -1.640625 -0.40625q-0.796875 -0.421875 -1.375 -1.234375l0 1.421875l-2.375 0zm2.53125 -5.046875q0 1.5 0.484375 2.21875q0.65625 1.03125 1.765625 1.03125q0.84375 0 1.4375 -0.71875q0.59375 -0.734375 0.59375 -2.296875q0 -1.65625 -0.609375 -2.390625q-0.59375 -0.734375 -1.53125 -0.734375q-0.921875 0 -1.53125 0.71875q-0.609375 0.71875 -0.609375 2.171875zm17.84906 5.046875l-2.390625 0l0 -1.421875q-0.59375 0.828125 -1.40625 1.234375q-0.796875 0.40625 -1.609375 0.40625q-1.671875 0 -2.859375 -1.34375q-1.1875 -1.34375 -1.1875 -3.75q0 -2.453125 1.15625 -3.734375q1.15625 -1.28125 2.921875 -1.28125q1.625 0 2.8125 1.34375l0 -4.8125l2.5625 0l0 13.359375zm-6.84375 -5.046875q0 1.546875 0.4375 2.234375q0.609375 1.015625 1.71875 1.015625q0.890625 0 1.5 -0.75q0.625 -0.765625 0.625 -2.25q0 -1.671875 -0.609375 -2.40625q-0.59375 -0.734375 -1.53125 -0.734375q-0.90625 0 -1.53125 0.734375q-0.609375 0.71875 -0.609375 2.15625zm11.270996 -1.671875l-2.328125 -0.421875q0.40625 -1.40625 1.359375 -2.078125q0.953125 -0.671875 2.84375 -0.671875q1.703125 0 2.546875 0.40625q0.84375 0.40625 1.171875 1.03125q0.34375 0.625 0.34375 2.28125l-0.015625 3.0q0 1.265625 0.109375 1.875q0.125 0.609375 0.46875 1.296875l-2.53125 0q-0.109375 -0.25 -0.25 -0.75q-0.0625 -0.234375 -0.09375 -0.3125q-0.65625 0.640625 -1.40625 0.96875q-0.734375 0.3125 -1.59375 0.3125q-1.484375 0 -2.34375 -0.8125q-0.859375 -0.8125 -0.859375 -2.046875q0 -0.828125 0.390625 -1.46875q0.390625 -0.640625 1.09375 -0.96875q0.703125 -0.34375 2.03125 -0.609375q1.796875 -0.328125 2.484375 -0.625l0 -0.25q0 -0.75 -0.359375 -1.0625q-0.359375 -0.3125 -1.375 -0.3125q-0.6875 0 -1.078125 0.28125q-0.375 0.265625 -0.609375 0.9375zm3.421875 2.078125q-0.484375 0.15625 -1.5625 0.390625q-1.0625 0.21875 -1.390625 0.4375q-0.5 0.359375 -0.5 0.90625q0 0.53125 0.40625 0.9375q0.40625 0.390625 1.015625 0.390625q0.703125 0 1.328125 -0.46875q0.46875 -0.34375 0.609375 -0.84375q0.09375 -0.328125 0.09375 -1.25l0 -0.5z" fill-rule="nonzero"/><path fill="#76a5af" d="m492.4462 50.208687l0 0c0 -1.6546936 1.3414001 -2.99609 2.9960938 -2.99609l141.75583 0c0.7946167 0 1.5567017 0.31565857 2.1185913 0.8775368c0.5618286 0.5618744 0.87750244 1.3239403 0.87750244 2.1185532l0 34.92121c0 1.6546936 -1.3413696 2.9960861 -2.9960938 2.9960861l-141.75583 0c-1.6546936 0 -2.9960938 -1.3413925 -2.9960938 -2.9960861z" fill-rule="evenodd"/><path fill="#ffffff" d="m535.8408 74.589294l2.015625 -9.671875l1.453125 0l-0.40625 1.96875q0.75 -1.109375 1.453125 -1.640625q0.71875 -0.546875 1.46875 -0.546875q0.5 0 1.21875 0.359375l-0.671875 1.53125q-0.4375 -0.3125 -0.9375 -0.3125q-0.875 0 -1.78125 0.96875q-0.90625 0.953125 -1.4375 3.46875l-0.8125 3.875l-1.5625 0zm13.3064575 -3.28125l1.609375 0.15625q-0.34375 1.1875 -1.59375 2.265625q-1.234375 1.078125 -2.96875 1.078125q-1.0625 0 -1.96875 -0.5q-0.890625 -0.5 -1.359375 -1.4375q-0.46875 -0.953125 -0.46875 -2.15625q0 -1.59375 0.734375 -3.078125q0.734375 -1.484375 1.890625 -2.203125q1.171875 -0.734375 2.53125 -0.734375q1.734375 0 2.765625 1.078125q1.03125 1.0625 1.03125 2.921875q0 0.71875 -0.125 1.46875l-7.125 0q-0.046875 0.28125 -0.046875 0.5q0 1.359375 0.625 2.078125q0.625 0.71875 1.53125 0.71875q0.84375 0 1.65625 -0.546875q0.828125 -0.5625 1.28125 -1.609375zm-4.78125 -2.40625l5.421875 0q0.015625 -0.25 0.015625 -0.359375q0 -1.234375 -0.625 -1.890625q-0.625 -0.671875 -1.59375 -0.671875q-1.0625 0 -1.9375 0.734375q-0.859375 0.71875 -1.28125 2.1875zm7.9694214 6.5625l1.671875 0.15625q-0.03125 0.5625 0.125 0.84375q0.15625 0.28125 0.5 0.4375q0.4375 0.203125 1.15625 0.203125q1.484375 0 2.140625 -0.78125q0.4375 -0.515625 0.796875 -2.25l0.171875 -0.78125q-1.296875 1.296875 -2.734375 1.296875q-1.46875 0 -2.46875 -1.078125q-0.984375 -1.078125 -0.984375 -3.0625q0 -1.625 0.78125 -2.984375q0.78125 -1.375 1.859375 -2.0625q1.078125 -0.703125 2.203125 -0.703125q1.90625 0 2.9375 1.796875l0.328125 -1.578125l1.515625 0l-1.953125 9.328125q-0.3125 1.546875 -0.84375 2.40625q-0.515625 0.859375 -1.4375 1.328125q-0.921875 0.484375 -2.140625 0.484375q-1.15625 0 -2.0 -0.3125q-0.84375 -0.296875 -1.265625 -0.875q-0.40625 -0.578125 -0.40625 -1.328125q0 -0.21875 0.046875 -0.484375zm2.0625 -5.15625q0 1.0 0.1875 1.5q0.265625 0.6875 0.765625 1.0625q0.515625 0.375 1.140625 0.375q0.8125 0 1.609375 -0.5625q0.796875 -0.578125 1.296875 -1.765625q0.5 -1.203125 0.5 -2.28125q0 -1.203125 -0.671875 -1.90625q-0.65625 -0.703125 -1.625 -0.703125q-0.609375 0 -1.171875 0.328125q-0.5625 0.3125 -1.046875 0.984375q-0.484375 0.65625 -0.734375 1.578125q-0.25 0.921875 -0.25 1.390625zm10.735107 -7.203129l0.40625 -1.875l1.625 0l-0.390625 1.875l-1.640625 0zm-2.390625 11.484379l2.015625 -9.671875l1.65625 0l-2.03125 9.671875l-1.640625 0zm4.3635864 -3.3125l1.640625 -0.09375q0 0.703125 0.21875 1.21875q0.21875 0.5 0.796875 0.8125q0.59375 0.3125 1.375 0.3125q1.09375 0 1.640625 -0.4375q0.546875 -0.4375 0.546875 -1.015625q0 -0.4375 -0.328125 -0.8125q-0.328125 -0.390625 -1.640625 -0.953125q-1.3125 -0.5625 -1.671875 -0.78125q-0.609375 -0.375 -0.921875 -0.875q-0.3125 -0.515625 -0.3125 -1.171875q0 -1.140625 0.90625 -1.953125q0.921875 -0.828125 2.5625 -0.828125q1.828125 0 2.765625 0.84375q0.953125 0.84375 1.0 2.21875l-1.609375 0.109375q-0.046875 -0.875 -0.625 -1.390625q-0.578125 -0.515625 -1.65625 -0.515625q-0.84375 0 -1.328125 0.40625q-0.46875 0.390625 -0.46875 0.84375q0 0.453125 0.40625 0.796875q0.28125 0.234375 1.421875 0.734375q1.890625 0.8125 2.375 1.28125q0.78125 0.765625 0.78125 1.84375q0 0.71875 -0.4375 1.421875q-0.4375 0.6875 -1.34375 1.109375q-0.90625 0.40625 -2.140625 0.40625q-1.671875 0 -2.84375 -0.828125q-1.1875 -0.828125 -1.109375 -2.703125zm13.015625 1.96875l-0.265625 1.359375q-0.59375 0.140625 -1.15625 0.140625q-0.984375 0 -1.5625 -0.46875q-0.4375 -0.375 -0.4375 -1.0q0 -0.3125 0.234375 -1.46875l1.171875 -5.625l-1.296875 0l0.265625 -1.265625l1.296875 0l0.5 -2.3750038l1.890625 -1.140625l-0.734375 3.5156288l1.625 0l-0.28125 1.265625l-1.609375 0l-1.125 5.359375q-0.203125 1.015625 -0.203125 1.21875q0 0.28125 0.15625 0.4375q0.171875 0.15625 0.5625 0.15625q0.546875 0 0.96875 -0.109375zm8.433289 -1.9375l1.609375 0.15625q-0.34375 1.1875 -1.59375 2.265625q-1.234375 1.078125 -2.96875 1.078125q-1.0625 0 -1.96875 -0.5q-0.890625 -0.5 -1.359375 -1.4375q-0.46875 -0.953125 -0.46875 -2.15625q0 -1.59375 0.734375 -3.078125q0.734375 -1.484375 1.890625 -2.203125q1.171875 -0.734375 2.53125 -0.734375q1.734375 0 2.765625 1.078125q1.03125 1.0625 1.03125 2.921875q0 0.71875 -0.125 1.46875l-7.125 0q-0.046875 0.28125 -0.046875 0.5q0 1.359375 0.625 2.078125q0.625 0.71875 1.53125 0.71875q0.84375 0 1.65625 -0.546875q0.828125 -0.5625 1.28125 -1.609375zm-4.78125 -2.40625l5.421875 0q0.015625 -0.25 0.015625 -0.359375q0 -1.234375 -0.625 -1.890625q-0.625 -0.671875 -1.59375 -0.671875q-1.0625 0 -1.9375 0.734375q-0.859375 0.71875 -1.28125 2.1875zm8.063232 5.6875l2.015625 -9.671875l1.453125 0l-0.40625 1.96875q0.75 -1.109375 1.453125 -1.640625q0.71875 -0.546875 1.46875 -0.546875q0.5 0 1.21875 0.359375l-0.671875 1.53125q-0.4375 -0.3125 -0.9375 -0.3125q-0.875 0 -1.78125 0.96875q-0.90625 0.953125 -1.4375 3.46875l-0.8125 3.875l-1.5625 0z" fill-rule="nonzero"/><path fill="#76a5af" d="m492.4462 97.42129l0 0c0 -1.6546936 1.3414001 -2.9960938 2.9960938 -2.9960938l141.75583 0c0.7946167 0 1.5567017 0.31565857 2.1185913 0.87753296c0.5618286 0.561882 0.87750244 1.3239441 0.87750244 2.1185608l0 34.92121c0 1.6546936 -1.3413696 2.9960785 -2.9960938 2.9960785l-141.75583 0c-1.6546936 0 -2.9960938 -1.3413849 -2.9960938 -2.9960785z" fill-rule="evenodd"/><path fill="#ffffff" d="m547.0962 121.80189l2.796875 -13.359375l1.640625 0l-2.78125 13.359375l-1.65625 0zm4.5667114 -3.671875q0 -2.828125 1.671875 -4.6875q1.375 -1.53125 3.609375 -1.53125q1.75 0 2.8125 1.09375q1.078125 1.09375 1.078125 2.953125q0 1.65625 -0.671875 3.09375q-0.671875 1.4375 -1.921875 2.203125q-1.25 0.765625 -2.625 0.765625q-1.125 0 -2.046875 -0.484375q-0.921875 -0.484375 -1.421875 -1.359375q-0.484375 -0.890625 -0.484375 -2.046875zm1.65625 -0.15625q0 1.359375 0.65625 2.0625q0.65625 0.703125 1.65625 0.703125q0.53125 0 1.046875 -0.203125q0.53125 -0.21875 0.96875 -0.65625q0.453125 -0.4375 0.765625 -1.0q0.3125 -0.5625 0.5 -1.203125q0.28125 -0.90625 0.28125 -1.734375q0 -1.3125 -0.65625 -2.03125q-0.65625 -0.734375 -1.65625 -0.734375q-0.78125 0 -1.421875 0.375q-0.625 0.375 -1.140625 1.09375q-0.515625 0.703125 -0.765625 1.640625q-0.234375 0.9375 -0.234375 1.6875zm8.344421 4.703125l1.671875 0.15625q-0.03125 0.5625 0.125 0.84375q0.15625 0.28125 0.5 0.4375q0.4375 0.203125 1.15625 0.203125q1.484375 0 2.140625 -0.78125q0.4375 -0.515625 0.796875 -2.25l0.171875 -0.78125q-1.296875 1.296875 -2.734375 1.296875q-1.46875 0 -2.46875 -1.078125q-0.984375 -1.078125 -0.984375 -3.0625q0 -1.625 0.78125 -2.984375q0.78125 -1.375 1.859375 -2.0625q1.078125 -0.703125 2.203125 -0.703125q1.90625 0 2.9375 1.796875l0.328125 -1.578125l1.515625 0l-1.953125 9.328125q-0.3125 1.546875 -0.84375 2.40625q-0.515625 0.859375 -1.4375 1.328125q-0.921875 0.484375 -2.140625 0.484375q-1.15625 0 -2.0 -0.3125q-0.84375 -0.296875 -1.265625 -0.875q-0.40625 -0.578125 -0.40625 -1.328125q0 -0.21875 0.046875 -0.484375zm2.0625 -5.15625q0 1.0 0.1875 1.5q0.265625 0.6875 0.765625 1.0625q0.515625 0.375 1.140625 0.375q0.8125 0 1.609375 -0.5625q0.796875 -0.578125 1.296875 -1.765625q0.5 -1.203125 0.5 -2.28125q0 -1.203125 -0.671875 -1.90625q-0.65625 -0.703125 -1.625 -0.703125q-0.609375 0 -1.171875 0.328125q-0.5625 0.3125 -1.046875 0.984375q-0.484375 0.65625 -0.734375 1.578125q-0.25 0.921875 -0.25 1.390625zm10.735107 -7.203125l0.40625 -1.875l1.625 0l-0.390625 1.875l-1.640625 0zm-2.390625 11.484375l2.015625 -9.671875l1.65625 0l-2.03125 9.671875l-1.640625 0zm4.2073364 0l2.015625 -9.671875l1.5 0l-0.359375 1.6875q0.96875 -1.0 1.8125 -1.453125q0.859375 -0.453125 1.734375 -0.453125q1.1875 0 1.84375 0.640625q0.671875 0.625 0.671875 1.703125q0 0.53125 -0.234375 1.6875l-1.234375 5.859375l-1.640625 0l1.28125 -6.125q0.1875 -0.890625 0.1875 -1.328125q0 -0.484375 -0.328125 -0.78125q-0.328125 -0.296875 -0.953125 -0.296875q-1.28125 0 -2.265625 0.90625q-0.984375 0.90625 -1.453125 3.125l-0.9375 4.5l-1.640625 0z" fill-rule="nonzero"/><path fill="#76a5af" d="m492.4462 144.63388l0 0c0 -1.6546936 1.3414001 -2.9960785 2.9960938 -2.9960785l141.75583 0c0.7946167 0 1.5567017 0.31565857 2.1185913 0.87753296c0.5618286 0.5618744 0.87750244 1.3239288 0.87750244 2.1185455l0 34.92122c0 1.6546936 -1.3413696 2.9960785 -2.9960938 2.9960785l-141.75583 0c-1.6546936 0 -2.9960938 -1.3413849 -2.9960938 -2.9960785z" fill-rule="evenodd"/><path fill="#ffffff" d="m540.7263 172.7176l2.796875 -13.375l1.515625 0l-0.28125 1.34375q0.84375 -0.875 1.515625 -1.21875q0.671875 -0.34375 1.421875 -0.34375q1.375 0 2.28125 1.015625q0.921875 1.0 0.921875 2.875q0 1.515625 -0.5 2.765625q-0.5 1.234375 -1.234375 2.0q-0.71875 0.75 -1.46875 1.109375q-0.75 0.34375 -1.53125 0.34375q-1.75 0 -2.703125 -1.765625l-1.09375 5.25l-1.640625 0zm3.25 -7.65625q0 1.078125 0.15625 1.5q0.234375 0.59375 0.75 0.96875q0.515625 0.359375 1.203125 0.359375q1.421875 0 2.296875 -1.59375q0.875 -1.609375 0.875 -3.28125q0 -1.21875 -0.59375 -1.890625q-0.578125 -0.671875 -1.453125 -0.671875q-0.625 0 -1.171875 0.34375q-0.53125 0.328125 -1.0 0.984375q-0.453125 0.65625 -0.765625 1.609375q-0.296875 0.953125 -0.296875 1.671875zm7.9382324 3.953125l2.015625 -9.671875l1.453125 0l-0.40625 1.96875q0.75 -1.109375 1.453125 -1.640625q0.71875 -0.546875 1.46875 -0.546875q0.5 0 1.21875 0.359375l-0.671875 1.53125q-0.4375 -0.3125 -0.9375 -0.3125q-0.875 0 -1.78125 0.96875q-0.90625 0.953125 -1.4375 3.46875l-0.8125 3.875l-1.5625 0zm6.4938965 -3.671875q0 -2.828125 1.671875 -4.6875q1.375 -1.53125 3.609375 -1.53125q1.75 0 2.8125 1.09375q1.078125 1.09375 1.078125 2.953125q0 1.65625 -0.671875 3.09375q-0.671875 1.4375 -1.921875 2.203125q-1.25 0.765625 -2.625 0.765625q-1.125 0 -2.046875 -0.484375q-0.921875 -0.484375 -1.421875 -1.359375q-0.484375 -0.890625 -0.484375 -2.046875zm1.65625 -0.15625q0 1.359375 0.65625 2.0625q0.65625 0.703125 1.65625 0.703125q0.53125 0 1.046875 -0.203125q0.53125 -0.21875 0.96875 -0.65625q0.453125 -0.4375 0.765625 -1.0q0.3125 -0.5625 0.5 -1.203125q0.28125 -0.90625 0.28125 -1.734375q0 -1.3125 -0.65625 -2.03125q-0.65625 -0.734375 -1.65625 -0.734375q-0.78125 0 -1.421875 0.375q-0.625 0.375 -1.140625 1.09375q-0.515625 0.703125 -0.765625 1.640625q-0.234375 0.9375 -0.234375 1.6875zm8.656982 3.828125l1.765625 -8.40625l-1.484375 0l0.265625 -1.265625l1.484375 0l0.28125 -1.375q0.21875 -1.03125 0.4375 -1.484375q0.234375 -0.453125 0.75 -0.75q0.53125 -0.296875 1.4375 -0.296875q0.625 0 1.828125 0.265625l-0.296875 1.4375q-0.84375 -0.21875 -1.40625 -0.21875q-0.484375 0 -0.734375 0.25q-0.25 0.234375 -0.4375 1.125l-0.21875 1.046875l1.84375 0l-0.265625 1.265625l-1.84375 0l-1.75 8.40625l-1.65625 0zm7.2926636 -11.484375l0.40625 -1.875l1.625 0l-0.390625 1.875l-1.640625 0zm-2.390625 11.484375l2.015625 -9.671875l1.65625 0l-2.03125 9.671875l-1.640625 0zm4.0667114 0l2.796875 -13.359375l1.640625 0l-2.78125 13.359375l-1.65625 0zm11.379211 -3.28125l1.609375 0.15625q-0.34375 1.1875 -1.59375 2.265625q-1.234375 1.078125 -2.96875 1.078125q-1.0625 0 -1.96875 -0.5q-0.890625 -0.5 -1.359375 -1.4375q-0.46875 -0.953125 -0.46875 -2.15625q0 -1.59375 0.734375 -3.078125q0.734375 -1.484375 1.890625 -2.203125q1.171875 -0.734375 2.53125 -0.734375q1.734375 0 2.765625 1.078125q1.03125 1.0625 1.03125 2.921875q0 0.71875 -0.125 1.46875l-7.125 0q-0.046875 0.28125 -0.046875 0.5q0 1.359375 0.625 2.078125q0.625 0.71875 1.53125 0.71875q0.84375 0 1.65625 -0.546875q0.828125 -0.5625 1.28125 -1.609375zm-4.78125 -2.40625l5.421875 0q0.015625 -0.25 0.015625 -0.359375q0 -1.234375 -0.625 -1.890625q-0.625 -0.671875 -1.59375 -0.671875q-1.0625 0 -1.9375 0.734375q-0.859375 0.71875 -1.28125 2.1875z" fill-rule="nonzero"/><path fill="#ffe599" d="m179.06561 13.951183l0 0c0 -7.705026 6.246155 -13.951183 13.951187 -13.951183l139.71968 0c3.7000732 0 7.2486267 1.4698526 9.86499 4.086207c2.616333 2.6163545 4.0861816 6.1648927 4.0861816 9.864977l0 226.49133c0 7.705017 -6.246155 13.951187 -13.951172 13.951187l-139.71968 0c-7.7050323 0 -13.951187 -6.24617 -13.951187 -13.951187z" fill-rule="evenodd"/><path fill="#7f6000" d="m246.87093 26.09991l2.609375 0.828125q-0.59375 2.1875 -2.0 3.25q-1.390625 1.0625 -3.546875 1.0625q-2.65625 0 -4.375 -1.8125q-1.703125 -1.828125 -1.703125 -4.984375q0 -3.328125 1.71875 -5.171875q1.71875 -1.84375 4.515625 -1.84375q2.453125 0 3.984375 1.4375q0.921875 0.859375 1.375 2.46875l-2.671875 0.640625q-0.234375 -1.046875 -0.984375 -1.640625q-0.75 -0.609375 -1.828125 -0.609375q-1.484375 0 -2.421875 1.078125q-0.921875 1.0625 -0.921875 3.4375q0 2.53125 0.90625 3.609375q0.921875 1.078125 2.375 1.078125q1.078125 0 1.84375 -0.671875q0.78125 -0.6875 1.125 -2.15625zm4.910446 4.90625l0 -13.359375l2.5625 0l0 13.359375l-2.5625 0zm5.1832886 -10.984375l0 -2.375l2.5625 0l0 2.375l-2.5625 0zm0 10.984375l0 -9.671875l2.5625 0l0 9.671875l-2.5625 0zm10.777069 -3.078125l2.546875 0.421875q-0.484375 1.40625 -1.546875 2.140625q-1.0625 0.734375 -2.65625 0.734375q-2.515625 0 -3.734375 -1.65625q-0.953125 -1.3125 -0.953125 -3.328125q0 -2.40625 1.25 -3.765625q1.265625 -1.359375 3.1875 -1.359375q2.15625 0 3.40625 1.421875q1.25 1.421875 1.1875 4.375l-6.40625 0q0.03125 1.140625 0.609375 1.78125q0.59375 0.625 1.484375 0.625q0.59375 0 1.0 -0.328125q0.421875 -0.328125 0.625 -1.0625zm0.15625 -2.59375q-0.03125 -1.109375 -0.578125 -1.6875q-0.546875 -0.578125 -1.328125 -0.578125q-0.84375 0 -1.390625 0.609375q-0.546875 0.609375 -0.53125 1.65625l3.828125 0zm13.422577 5.671875l-2.5625 0l0 -4.9375q0 -1.5625 -0.171875 -2.015625q-0.15625 -0.46875 -0.53125 -0.71875q-0.359375 -0.265625 -0.875 -0.265625q-0.671875 0 -1.203125 0.375q-0.53125 0.359375 -0.734375 0.96875q-0.1875 0.59375 -0.1875 2.21875l0 4.375l-2.546875 0l0 -9.671875l2.375 0l0 1.421875q1.265625 -1.640625 3.1875 -1.640625q0.84375 0 1.546875 0.3125q0.703125 0.296875 1.0625 0.78125q0.359375 0.46875 0.5 1.078125q0.140625 0.59375 0.140625 1.703125l0 6.015625zm7.036621 -9.671875l0 2.03125l-1.75 0l0 3.90625q0 1.1875 0.046875 1.390625q0.046875 0.1875 0.21875 0.3125q0.1875 0.125 0.4375 0.125q0.359375 0 1.03125 -0.25l0.21875 2.0q-0.890625 0.375 -2.015625 0.375q-0.703125 0 -1.265625 -0.234375q-0.546875 -0.234375 -0.8125 -0.59375q-0.25 -0.375 -0.34375 -1.0q-0.09375 -0.453125 -0.09375 -1.8125l0 -4.21875l-1.171875 0l0 -2.03125l1.171875 0l0 -1.921875l2.578125 -1.5l0 3.421875l1.75 0z" fill-rule="nonzero"/><path fill="#f1c232" d="m189.00262 50.696877l0 0c0 -1.6546936 1.3414001 -2.99609 2.9960938 -2.99609l141.75586 0c0.7946167 0 1.5566711 0.31565857 2.1185303 0.87753296c0.56188965 0.5618782 0.8775635 1.3239441 0.8775635 2.118557l0 34.92121c0 1.6546936 -1.3414001 2.9960861 -2.9960938 2.9960861l-141.75586 0c-1.6546936 0 -2.9960938 -1.3413925 -2.9960938 -2.9960861z" fill-rule="evenodd"/><path fill="#7f6000" d="m232.39726 75.07748l2.015625 -9.671875l1.453125 0l-0.40625 1.96875q0.75 -1.109375 1.453125 -1.640625q0.71875 -0.546875 1.46875 -0.546875q0.5 0 1.21875 0.359375l-0.671875 1.53125q-0.4375 -0.3125 -0.9375 -0.3125q-0.875 0 -1.78125 0.96875q-0.90625 0.953125 -1.4375 3.46875l-0.8125 3.875l-1.5625 0zm13.306427 -3.28125l1.609375 0.15625q-0.34375 1.1875 -1.59375 2.265625q-1.234375 1.078125 -2.96875 1.078125q-1.0625 0 -1.96875 -0.5q-0.890625 -0.5 -1.359375 -1.4375q-0.46875 -0.953125 -0.46875 -2.15625q0 -1.59375 0.734375 -3.078125q0.734375 -1.484375 1.890625 -2.203125q1.171875 -0.734375 2.53125 -0.734375q1.734375 0 2.765625 1.078125q1.03125 1.0625 1.03125 2.921875q0 0.71875 -0.125 1.46875l-7.125 0q-0.046875 0.28125 -0.046875 0.5q0 1.359375 0.625 2.078125q0.625 0.71875 1.53125 0.71875q0.84375 0 1.65625 -0.546875q0.828125 -0.5625 1.28125 -1.609375zm-4.78125 -2.40625l5.421875 0q0.015625 -0.25 0.015625 -0.359375q0 -1.234375 -0.625 -1.890625q-0.625 -0.671875 -1.59375 -0.671875q-1.0625 0 -1.9375 0.734375q-0.859375 0.71875 -1.28125 2.1875zm7.969467 6.5625l1.671875 0.15625q-0.03125 0.5625 0.125 0.84375q0.15625 0.28125 0.5 0.4375q0.4375 0.203125 1.15625 0.203125q1.484375 0 2.140625 -0.78125q0.4375 -0.515625 0.796875 -2.25l0.171875 -0.78125q-1.296875 1.296875 -2.734375 1.296875q-1.46875 0 -2.46875 -1.078125q-0.984375 -1.078125 -0.984375 -3.0625q0 -1.625 0.78125 -2.984375q0.78125 -1.375 1.859375 -2.0625q1.078125 -0.703125 2.203125 -0.703125q1.90625 0 2.9375 1.796875l0.328125 -1.578125l1.515625 0l-1.953125 9.328125q-0.3125 1.546875 -0.84375 2.40625q-0.515625 0.859375 -1.4375 1.328125q-0.921875 0.484375 -2.140625 0.484375q-1.15625 0 -2.0 -0.3125q-0.84375 -0.296875 -1.265625 -0.875q-0.40625 -0.578125 -0.40625 -1.328125q0 -0.21875 0.046875 -0.484375zm2.0625 -5.15625q0 1.0 0.1875 1.5q0.265625 0.6875 0.765625 1.0625q0.515625 0.375 1.140625 0.375q0.8125 0 1.609375 -0.5625q0.796875 -0.578125 1.296875 -1.765625q0.5 -1.203125 0.5 -2.28125q0 -1.203125 -0.671875 -1.90625q-0.65625 -0.703125 -1.625 -0.703125q-0.609375 0 -1.171875 0.328125q-0.5625 0.3125 -1.046875 0.984375q-0.484375 0.65625 -0.734375 1.578125q-0.25 0.921875 -0.25 1.390625zm10.735077 -7.203121l0.40625 -1.875l1.625 0l-0.390625 1.875l-1.640625 0zm-2.390625 11.484371l2.015625 -9.671875l1.65625 0l-2.03125 9.671875l-1.640625 0zm4.3635864 -3.3125l1.640625 -0.09375q0 0.703125 0.21875 1.21875q0.21875 0.5 0.796875 0.8125q0.59375 0.3125 1.375 0.3125q1.09375 0 1.640625 -0.4375q0.546875 -0.4375 0.546875 -1.015625q0 -0.4375 -0.328125 -0.8125q-0.328125 -0.390625 -1.640625 -0.953125q-1.3125 -0.5625 -1.671875 -0.78125q-0.609375 -0.375 -0.921875 -0.875q-0.3125 -0.515625 -0.3125 -1.171875q0 -1.140625 0.90625 -1.953125q0.921875 -0.828125 2.5625 -0.828125q1.828125 0 2.765625 0.84375q0.953125 0.84375 1.0 2.21875l-1.609375 0.109375q-0.046875 -0.875 -0.625 -1.390625q-0.578125 -0.515625 -1.65625 -0.515625q-0.84375 0 -1.328125 0.40625q-0.46875 0.390625 -0.46875 0.84375q0 0.453125 0.40625 0.796875q0.28125 0.234375 1.421875 0.734375q1.890625 0.8125 2.375 1.28125q0.78125 0.765625 0.78125 1.84375q0 0.71875 -0.4375 1.421875q-0.4375 0.6875 -1.34375 1.109375q-0.90625 0.40625 -2.140625 0.40625q-1.671875 0 -2.84375 -0.828125q-1.1875 -0.828125 -1.109375 -2.703125zm13.015625 1.96875l-0.265625 1.359375q-0.59375 0.140625 -1.15625 0.140625q-0.984375 0 -1.5625 -0.46875q-0.4375 -0.375 -0.4375 -1.0q0 -0.3125 0.234375 -1.46875l1.171875 -5.625l-1.296875 0l0.265625 -1.265625l1.296875 0l0.5 -2.3749962l1.890625 -1.140625l-0.734375 3.5156212l1.625 0l-0.28125 1.265625l-1.609375 0l-1.125 5.359375q-0.203125 1.015625 -0.203125 1.21875q0 0.28125 0.15625 0.4375q0.171875 0.15625 0.5625 0.15625q0.546875 0 0.96875 -0.109375zm8.433289 -1.9375l1.609375 0.15625q-0.34375 1.1875 -1.59375 2.265625q-1.234375 1.078125 -2.96875 1.078125q-1.0625 0 -1.96875 -0.5q-0.890625 -0.5 -1.359375 -1.4375q-0.46875 -0.953125 -0.46875 -2.15625q0 -1.59375 0.734375 -3.078125q0.734375 -1.484375 1.890625 -2.203125q1.171875 -0.734375 2.53125 -0.734375q1.734375 0 2.765625 1.078125q1.03125 1.0625 1.03125 2.921875q0 0.71875 -0.125 1.46875l-7.125 0q-0.046875 0.28125 -0.046875 0.5q0 1.359375 0.625 2.078125q0.625 0.71875 1.53125 0.71875q0.84375 0 1.65625 -0.546875q0.828125 -0.5625 1.28125 -1.609375zm-4.78125 -2.40625l5.421875 0q0.015625 -0.25 0.015625 -0.359375q0 -1.234375 -0.625 -1.890625q-0.625 -0.671875 -1.59375 -0.671875q-1.0625 0 -1.9375 0.734375q-0.859375 0.71875 -1.28125 2.1875zm8.063232 5.6875l2.015625 -9.671875l1.453125 0l-0.40625 1.96875q0.75 -1.109375 1.453125 -1.640625q0.71875 -0.546875 1.46875 -0.546875q0.5 0 1.21875 0.359375l-0.671875 1.53125q-0.4375 -0.3125 -0.9375 -0.3125q-0.875 0 -1.78125 0.96875q-0.90625 0.953125 -1.4375 3.46875l-0.8125 3.875l-1.5625 0z" fill-rule="nonzero"/><path fill="#f1c232" d="m189.00262 97.90947l0 0c0 -1.6546936 1.3414001 -2.9960861 2.9960938 -2.9960861l141.75586 0c0.7946167 0 1.5566711 0.31565857 2.1185303 0.87753296c0.56188965 0.561882 0.8775635 1.3239441 0.8775635 2.1185532l0 34.92122c0 1.6546936 -1.3414001 2.9960785 -2.9960938 2.9960785l-141.75586 0c-1.6546936 0 -2.9960938 -1.3413849 -2.9960938 -2.9960785z" fill-rule="evenodd"/><path fill="#7f6000" d="m243.65262 122.29008l2.796875 -13.359375l1.640625 0l-2.78125 13.359375l-1.65625 0zm4.566696 -3.671875q0 -2.828125 1.671875 -4.6875q1.375 -1.53125 3.609375 -1.53125q1.75 0 2.8124847 1.09375q1.078125 1.09375 1.078125 2.953125q0 1.65625 -0.671875 3.09375q-0.671875 1.4375 -1.9218597 2.203125q-1.25 0.765625 -2.625 0.765625q-1.125 0 -2.046875 -0.484375q-0.921875 -0.484375 -1.421875 -1.359375q-0.484375 -0.890625 -0.484375 -2.046875zm1.65625 -0.15625q0 1.359375 0.65625 2.0625q0.65625 0.703125 1.65625 0.703125q0.53125 0 1.046875 -0.203125q0.53125 -0.21875 0.96875 -0.65625q0.453125 -0.4375 0.765625 -1.0q0.3125 -0.5625 0.5 -1.203125q0.28125 -0.90625 0.28125 -1.734375q0 -1.3125 -0.65625 -2.03125q-0.65625 -0.734375 -1.65625 -0.734375q-0.78125 0 -1.421875 0.375q-0.625 0.375 -1.140625 1.09375q-0.515625 0.703125 -0.765625 1.640625q-0.234375 0.9375 -0.234375 1.6875zm8.344467 4.703125l1.671875 0.15625q-0.03125 0.5625 0.125 0.84375q0.15625 0.28125 0.5 0.4375q0.4375 0.203125 1.15625 0.203125q1.484375 0 2.140625 -0.78125q0.4375 -0.515625 0.796875 -2.25l0.171875 -0.78125q-1.296875 1.296875 -2.734375 1.296875q-1.46875 0 -2.46875 -1.078125q-0.984375 -1.078125 -0.984375 -3.0625q0 -1.625 0.78125 -2.984375q0.78125 -1.375 1.859375 -2.0625q1.078125 -0.703125 2.203125 -0.703125q1.90625 0 2.9375 1.796875l0.328125 -1.578125l1.515625 0l-1.953125 9.328125q-0.3125 1.546875 -0.84375 2.40625q-0.515625 0.859375 -1.4375 1.328125q-0.921875 0.484375 -2.140625 0.484375q-1.15625 0 -2.0 -0.3125q-0.84375 -0.296875 -1.265625 -0.875q-0.40625 -0.578125 -0.40625 -1.328125q0 -0.21875 0.046875 -0.484375zm2.0625 -5.15625q0 1.0 0.1875 1.5q0.265625 0.6875 0.765625 1.0625q0.515625 0.375 1.140625 0.375q0.8125 0 1.609375 -0.5625q0.796875 -0.578125 1.296875 -1.765625q0.5 -1.203125 0.5 -2.28125q0 -1.203125 -0.671875 -1.90625q-0.65625 -0.703125 -1.625 -0.703125q-0.609375 0 -1.171875 0.328125q-0.5625 0.3125 -1.046875 0.984375q-0.484375 0.65625 -0.734375 1.578125q-0.25 0.921875 -0.25 1.390625zm10.735077 -7.203125l0.40625 -1.875l1.625 0l-0.390625 1.875l-1.640625 0zm-2.390625 11.484375l2.015625 -9.671875l1.65625 0l-2.03125 9.671875l-1.640625 0zm4.2073364 0l2.015625 -9.671875l1.5 0l-0.359375 1.6875q0.96875 -1.0 1.8125 -1.453125q0.859375 -0.453125 1.734375 -0.453125q1.1875 0 1.84375 0.640625q0.671875 0.625 0.671875 1.703125q0 0.53125 -0.234375 1.6875l-1.234375 5.859375l-1.640625 0l1.28125 -6.125q0.1875 -0.890625 0.1875 -1.328125q0 -0.484375 -0.328125 -0.78125q-0.328125 -0.296875 -0.953125 -0.296875q-1.28125 0 -2.265625 0.90625q-0.984375 0.90625 -1.453125 3.125l-0.9375 4.5l-1.640625 0z" fill-rule="nonzero"/><path fill="#bf9000" d="m189.00262 149.46974l0 0c0 -4.055847 3.287918 -7.34375 7.3437653 -7.34375l133.0605 0c1.9476929 0 3.8156128 0.77371216 5.1928406 2.1509247c1.3771973 1.3772278 2.15094 3.2451477 2.15094 5.1928253l0 85.59595c0 4.055847 -3.2879333 7.3437653 -7.3437805 7.3437653l-133.0605 0c-4.055847 0 -7.3437653 -3.287918 -7.3437653 -7.3437653z" fill-rule="evenodd"/><path fill="#ffffff" d="m213.18909 161.52502l2.484375 0l-0.21875 0.984375q0.796875 -0.65625 1.484375 -0.9375q0.6875 -0.28125 1.484375 -0.28125q1.53125 0 2.453125 1.046875q0.921875 1.046875 0.921875 3.125q0 2.625 -1.59375 4.421875q-1.375 1.546875 -3.234375 1.546875q-1.921875 0 -2.90625 -1.5625l-1.046875 5.015625l-2.609375 0l2.78125 -13.359375zm1.578125 5.546875q0 1.125 0.546875 1.75q0.546875 0.625 1.296875 0.625q0.65625 0 1.25 -0.46875q0.609375 -0.46875 1.0 -1.546875q0.390625 -1.09375 0.390625 -2.03125q0 -1.078125 -0.515625 -1.65625q-0.515625 -0.578125 -1.3125 -0.578125q-0.75 0 -1.375 0.53125q-0.609375 0.53125 -0.953125 1.5625q-0.328125 1.03125 -0.328125 1.8125zm9.755356 -5.546875l2.4375 0l-0.390625 1.875q1.375 -2.109375 2.96875 -2.109375q0.5625 0 1.203125 0.28125l-1.0 2.140625q-0.359375 -0.125 -0.75 -0.125q-0.6875 0 -1.390625 0.515625q-0.6875 0.5 -1.078125 1.359375q-0.390625 0.859375 -0.765625 2.703125l-0.640625 3.03125l-2.625 0l2.03125 -9.671875zm8.166519 -3.6875l2.625 0l-0.5 2.375l-2.609375 0l0.484375 -2.375zm-0.765625 3.6875l2.625 0l-2.03125 9.671875l-2.609375 0l2.015625 -9.671875zm7.995804 9.671875l-2.25 0l-1.9375 -9.671875l2.578125 0l0.671875 4.21875q0.28125 1.703125 0.34375 2.28125q0.078125 -0.15625 0.625 -1.1875q0.5625 -1.03125 0.6875 -1.234375l2.40625 -4.078125l2.828125 0l-5.953125 9.671875zm9.235092 -6.9375l-2.546875 -0.21875q0.4375 -1.28125 1.515625 -2.015625q1.09375 -0.734375 2.890625 -0.734375q1.859375 0 2.75 0.75q0.90625 0.75 0.90625 1.84375q0 0.4375 -0.078125 0.9375q-0.078125 0.484375 -0.546875 2.578125q-0.375 1.734375 -0.375 2.421875q0 0.625 0.21875 1.375l-2.546875 0q-0.15625 -0.53125 -0.1875 -1.09375q-0.578125 0.640625 -1.328125 0.984375q-0.75 0.34375 -1.5 0.34375q-1.203125 0 -1.984375 -0.78125q-0.78125 -0.796875 -0.78125 -2.046875q0 -1.375 0.859375 -2.203125q0.859375 -0.828125 3.0625 -1.0q1.875 -0.15625 2.5 -0.375q0.171875 -0.546875 0.171875 -0.875q0 -0.421875 -0.34375 -0.703125q-0.328125 -0.28125 -1.0 -0.28125q-0.703125 0 -1.109375 0.296875q-0.40625 0.28125 -0.546875 0.796875zm2.484375 2.421875q-0.234375 0.0625 -0.625 0.125q-1.96875 0.234375 -2.578125 0.6875q-0.421875 0.328125 -0.421875 0.890625q0 0.453125 0.328125 0.765625q0.328125 0.3125 0.859375 0.3125q0.59375 0 1.109375 -0.28125q0.53125 -0.296875 0.796875 -0.734375q0.265625 -0.453125 0.453125 -1.40625l0.078125 -0.359375zm4.8601074 -3.21875l0.390625 -1.9375l1.28125 0l0.3125 -1.546875l3.0 -1.8125l-0.703125 3.359375l1.59375 0l-0.390625 1.9375l-1.609375 0l-0.84375 4.046875q-0.234375 1.109375 -0.234375 1.265625q0 0.296875 0.1875 0.46875q0.203125 0.171875 0.703125 0.171875q0.171875 0 0.859375 -0.0625l-0.40625 1.9375q-0.671875 0.140625 -1.390625 0.140625q-1.375 0 -2.015625 -0.53125q-0.625 -0.546875 -0.625 -1.484375q0 -0.453125 0.34375 -2.0625l0.8125 -3.890625l-1.265625 0zm14.978302 3.703125l-6.5625 0q-0.015625 0.15625 -0.015625 0.234375q0 0.96875 0.546875 1.5625q0.5625 0.59375 1.359375 0.59375q1.296875 0 2.03125 -1.34375l2.328125 0.390625q-0.671875 1.40625 -1.828125 2.125q-1.140625 0.703125 -2.5625 0.703125q-1.9375 0 -3.171875 -1.234375q-1.21875 -1.234375 -1.21875 -3.265625q0 -2.0 1.109375 -3.546875q1.5 -2.09375 4.296875 -2.09375q1.765625 0 2.8125 1.109375q1.046875 1.09375 1.046875 3.0625q0 0.953125 -0.171875 1.703125zm-2.203125 -1.59375q0 -0.171875 0 -0.265625q0 -1.0625 -0.484375 -1.59375q-0.484375 -0.546875 -1.296875 -0.546875q-0.796875 0 -1.453125 0.609375q-0.640625 0.609375 -0.859375 1.796875l4.09375 0zm12.027771 -1.3125l-2.546875 -0.21875q0.4375 -1.28125 1.515625 -2.015625q1.09375 -0.734375 2.890625 -0.734375q1.859375 0 2.75 0.75q0.90625 0.75 0.90625 1.84375q0 0.4375 -0.078125 0.9375q-0.078125 0.484375 -0.546875 2.578125q-0.375 1.734375 -0.375 2.421875q0 0.625 0.21875 1.375l-2.546875 0q-0.15625 -0.53125 -0.1875 -1.09375q-0.578125 0.640625 -1.328125 0.984375q-0.75 0.34375 -1.5 0.34375q-1.203125 0 -1.984375 -0.78125q-0.78125 -0.796875 -0.78125 -2.046875q0 -1.375 0.859375 -2.203125q0.859375 -0.828125 3.0625 -1.0q1.875 -0.15625 2.5 -0.375q0.171875 -0.546875 0.171875 -0.875q0 -0.421875 -0.34375 -0.703125q-0.328125 -0.28125 -1.0 -0.28125q-0.703125 0 -1.109375 0.296875q-0.40625 0.28125 -0.546875 0.796875zm2.484375 2.421875q-0.234375 0.0625 -0.625 0.125q-1.96875 0.234375 -2.578125 0.6875q-0.421875 0.328125 -0.421875 0.890625q0 0.453125 0.328125 0.765625q0.328125 0.3125 0.859375 0.3125q0.59375 0 1.109375 -0.28125q0.53125 -0.296875 0.796875 -0.734375q0.265625 -0.453125 0.453125 -1.40625l0.078125 -0.359375zm6.078827 -5.15625l2.4375 0l-0.390625 1.875q1.375 -2.109375 2.96875 -2.109375q0.5625 0 1.203125 0.28125l-1.0 2.140625q-0.359375 -0.125 -0.75 -0.125q-0.6875 0 -1.390625 0.515625q-0.6875 0.5 -1.078125 1.359375q-0.390625 0.859375 -0.765625 2.703125l-0.640625 3.03125l-2.625 0l2.03125 -9.671875zm14.807159 5.640625l-6.5625 0q-0.015625 0.15625 -0.015625 0.234375q0 0.96875 0.546875 1.5625q0.5625 0.59375 1.359375 0.59375q1.296875 0 2.03125 -1.34375l2.328125 0.390625q-0.671875 1.40625 -1.828125 2.125q-1.140625 0.703125 -2.5625 0.703125q-1.9375 0 -3.171875 -1.234375q-1.21875 -1.234375 -1.21875 -3.265625q0 -2.0 1.109375 -3.546875q1.5 -2.09375 4.296875 -2.09375q1.765625 0 2.8125 1.109375q1.046875 1.09375 1.046875 3.0625q0 0.953125 -0.171875 1.703125zm-2.203125 -1.59375q0 -0.171875 0 -0.265625q0 -1.0625 -0.484375 -1.59375q-0.484375 -0.546875 -1.296875 -0.546875q-0.796875 0 -1.453125 0.609375q-0.640625 0.609375 -0.859375 1.796875l4.09375 0zm6.844452 -1.3125l-2.546875 -0.21875q0.4375 -1.28125 1.515625 -2.015625q1.09375 -0.734375 2.890625 -0.734375q1.859375 0 2.75 0.75q0.90625 0.75 0.90625 1.84375q0 0.4375 -0.078125 0.9375q-0.078125 0.484375 -0.546875 2.578125q-0.375 1.734375 -0.375 2.421875q0 0.625 0.21875 1.375l-2.546875 0q-0.15625 -0.53125 -0.1875 -1.09375q-0.578125 0.640625 -1.328125 0.984375q-0.75 0.34375 -1.5 0.34375q-1.203125 0 -1.984375 -0.78125q-0.78125 -0.796875 -0.78125 -2.046875q0 -1.375 0.859375 -2.203125q0.859375 -0.828125 3.0625 -1.0q1.875 -0.15625 2.5 -0.375q0.171875 -0.546875 0.171875 -0.875q0 -0.421875 -0.34375 -0.703125q-0.328125 -0.28125 -1.0 -0.28125q-0.703125 0 -1.109375 0.296875q-0.40625 0.28125 -0.546875 0.796875zm2.484375 2.421875q-0.234375 0.0625 -0.625 0.125q-1.96875 0.234375 -2.578125 0.6875q-0.421875 0.328125 -0.421875 0.890625q0 0.453125 0.328125 0.765625q0.328125 0.3125 0.859375 0.3125q0.59375 0 1.109375 -0.28125q0.53125 -0.296875 0.796875 -0.734375q0.265625 -0.453125 0.453125 -1.40625l0.078125 -0.359375z" fill-rule="nonzero"/><path fill="#000000" fill-opacity="0.0" d="m336.75067 60.157482l155.68503 -0.5039406" fill-rule="evenodd"/><path stroke="#bf9000" stroke-width="1.0" stroke-linejoin="round" stroke-linecap="butt" d="m336.75067 60.157482l149.68506 -0.48451614" fill-rule="evenodd"/><path fill="#bf9000" stroke="#bf9000" stroke-width="1.0" stroke-linecap="butt" d="m486.44107 61.324688l4.5327454 -1.6664124l-4.5434265 -1.6370354z" fill-rule="evenodd"/><path fill="#000000" fill-opacity="0.0" d="m492.4357 80.79527l-155.68503 0.50393677" fill-rule="evenodd"/><path stroke="#45818e" stroke-width="1.0" stroke-linejoin="round" stroke-linecap="butt" d="m492.4357 80.79527l-149.68509 0.48451996" fill-rule="evenodd"/><path fill="#45818e" stroke="#45818e" stroke-width="1.0" stroke-linecap="butt" d="m342.74527 79.62807l-4.532715 1.6664124l4.5434265 1.6370392z" fill-rule="evenodd"/><path fill="#000000" fill-opacity="0.0" d="m189.00262 68.15748c-17.413193 0 -33.586243 54.637794 -34.8264 109.2756c-1.2401581 54.637787 12.452576 109.27557 24.905136 109.27557" fill-rule="evenodd"/><path stroke="#bf9000" stroke-width="1.0" stroke-linejoin="round" stroke-linecap="butt" d="m189.00262 68.15748c-17.413208 0 -33.586243 54.637794 -34.8264 109.2756c-0.62008667 27.318893 2.4930725 54.637787 7.317795 75.12697c2.4123688 10.244583 5.2526245 18.781723 8.268097 24.757736c0.7538605 1.4940186 1.5186768 2.827942 2.2904816 3.9884644c0.38591003 0.58026123 0.7735748 1.117157 1.1624756 1.6090393c0.19447327 0.24594116 0.38923645 0.48065186 0.58425903 0.70388794l0.08370972 0.09326172" fill-rule="evenodd"/><path fill="#bf9000" stroke="#bf9000" stroke-width="1.0" stroke-linecap="butt" d="m173.05821 285.14346l4.7565765 0.83517456l-3.1069183 -3.697235z" fill-rule="evenodd"/><path fill="#ffe599" d="m395.08136 28.60105l0 0c0 -10.776075 8.735748 -19.51181 19.51181 -19.51181l0 0c5.1748657 0 10.137756 2.0557022 13.796936 5.714877c3.6591797 3.659175 5.7148743 8.622079 5.7148743 13.796933l0 0c0 10.776075 -8.735718 19.511812 -19.51181 19.511812l0 0c-10.776062 0 -19.51181 -8.735737 -19.51181 -19.511812z" fill-rule="evenodd"/><path fill="#7f6000" d="m418.2377 32.414173l0 2.046875l-7.6875 0q0.125 -1.15625 0.75 -2.1875q0.625 -1.046875 2.46875 -2.75q1.484375 -1.390625 1.8125 -1.875q0.453125 -0.6875 0.453125 -1.34375q0 -0.734375 -0.390625 -1.125q-0.390625 -0.40625 -1.09375 -0.40625q-0.6875 0 -1.09375 0.421875q-0.40625 0.40625 -0.46875 1.375l-2.1875 -0.21875q0.203125 -1.8125 1.234375 -2.59375q1.03125 -0.796875 2.578125 -0.796875q1.6875 0 2.65625 0.921875q0.96875 0.90625 0.96875 2.265625q0 0.765625 -0.28125 1.46875q-0.265625 0.703125 -0.875 1.46875q-0.390625 0.5 -1.4375 1.453125q-1.03125 0.953125 -1.3125 1.265625q-0.28125 0.3125 -0.453125 0.609375l4.359375 0z" fill-rule="nonzero"/><path fill="#d0e0e3" d="m395.08136 110.244095l0 0c0 -10.776077 8.735748 -19.51181 19.51181 -19.51181l0 0c5.1748657 0 10.137756 2.0557022 13.796936 5.7148743c3.6591797 3.6591797 5.7148743 8.622078 5.7148743 13.796936l0 0c0 10.776077 -8.735718 19.51181 -19.51181 19.51181l0 0c-10.776062 0 -19.51181 -8.735733 -19.51181 -19.51181z" fill-rule="evenodd"/><path fill="#134f5c" d="m410.75333 113.05722l2.125 -0.25q0.09375 0.8125 0.53125 1.25q0.453125 0.421875 1.09375 0.421875q0.671875 0 1.140625 -0.515625q0.46875 -0.515625 0.46875 -1.390625q0 -0.828125 -0.453125 -1.3125q-0.4375 -0.484375 -1.078125 -0.484375q-0.421875 0 -1.015625 0.15625l0.25 -1.78125q0.890625 0.015625 1.359375 -0.390625q0.46875 -0.40625 0.46875 -1.09375q0 -0.578125 -0.34375 -0.921875q-0.34375 -0.34375 -0.921875 -0.34375q-0.5625 0 -0.96875 0.390625q-0.390625 0.390625 -0.46875 1.140625l-2.03125 -0.34375q0.21875 -1.03125 0.640625 -1.65625q0.421875 -0.625 1.1875 -0.96875q0.765625 -0.359375 1.703125 -0.359375q1.625 0 2.59375 1.03125q0.8125 0.84375 0.8125 1.90625q0 1.5 -1.65625 2.40625q0.984375 0.203125 1.578125 0.9375q0.59375 0.734375 0.59375 1.78125q0 1.5 -1.109375 2.578125q-1.09375 1.0625 -2.734375 1.0625q-1.5625 0 -2.59375 -0.890625q-1.015625 -0.90625 -1.171875 -2.359375z" fill-rule="nonzero"/><path fill="#ffe599" d="m106.11811 222.91339l0 0c0 -10.776077 8.735733 -19.51181 19.51181 -19.51181l0 0c5.174858 0 10.137764 2.0556946 13.796928 5.7148743c3.6591797 3.6591644 5.7148895 8.62207 5.7148895 13.796936l0 0c0 10.776077 -8.735748 19.51181 -19.511818 19.51181l0 0c-10.776077 0 -19.51181 -8.735733 -19.51181 -19.51181z" fill-rule="evenodd"/><path fill="#7f6000" d="m126.16508 228.77339l0 -2.3125l-4.6875 0l0 -1.921875l4.96875 -7.265625l1.8437576 0l0 7.265625l1.421875 0l0 1.921875l-1.421875 0l0 2.3125l-2.1250076 0zm0 -4.234375l0 -3.921875l-2.625 3.921875l2.625 0z" fill-rule="nonzero"/><path fill="#6d9eeb" d="m8.692913 37.17323l0 0c0 -5.975113 4.8437862 -10.818899 10.818897 -10.818899l0 0c2.8693504 0 5.6211796 1.1398449 7.650116 3.1687832c2.0289383 2.0289364 3.1687832 4.7807655 3.1687832 7.650116l0 0c0 5.975113 -4.8437862 10.818897 -10.818899 10.818897l0 0c-5.975111 0 -10.818897 -4.8437843 -10.818897 -10.818897z" fill-rule="evenodd"/><path fill="#6d9eeb" d="m14.220472 52.85807l10.582678 0l0 0c3.7715034 0 7.3885345 1.4982262 10.055393 4.165081c2.6668549 2.6668549 4.165077 6.28389 4.165077 10.055393l0 14.220474c0 1.7547607E-4 -1.449585E-4 3.2043457E-4 -3.2424927E-4 3.2043457E-4l-39.023296 -3.2043457E-4l5.6016665E-20 0c-1.7960127E-4 0 -3.2519686E-4 -1.449585E-4 -3.2519686E-4 -3.2806396E-4l3.2519686E-4 -14.220146l0 0c0 -7.8537483 6.3667226 -14.220474 14.220472 -14.220474z" fill-rule="evenodd"/><path fill="#000000" fill-opacity="0.0" d="m39.02362 67.078545l149.98425 1.0708694" fill-rule="evenodd"/><path stroke="#6d9eeb" stroke-width="1.0" stroke-linejoin="round" stroke-linecap="butt" d="m39.02362 67.078545l143.98439 1.0280228" fill-rule="evenodd"/><path fill="#6d9eeb" stroke="#6d9eeb" stroke-width="1.0" stroke-linecap="butt" d="m182.99623 69.75826l4.549774 -1.6192856l-4.526184 -1.6840973z" fill-rule="evenodd"/><path fill="#c9daf8" d="m89.53281 35.51181l0 0c0 -10.776075 8.735741 -19.51181 19.51181 -19.51181l0 0c5.174858 0 10.137764 2.0557022 13.796936 5.714878c3.659172 3.659174 5.7148743 8.62208 5.7148743 13.796932l0 0c0 10.776077 -8.735733 19.51181 -19.51181 19.51181l0 0c-10.77607 0 -19.51181 -8.735733 -19.51181 -19.51181z" fill-rule="evenodd"/><path fill="#3c78d8" d="m110.89227 41.37181l-2.1875 0l0 -8.28125q-1.203125 1.125 -2.84375 1.671875l0 -2.0q0.859375 -0.28125 1.859375 -1.0625q1.015625 -0.78125 1.390625 -1.828125l1.78125 0l0 11.5z" fill-rule="nonzero"/><path fill="#ffe599" d="m179.06561 270.88205l0 0c0 -4.3690796 3.5418396 -7.910919 7.910919 -7.910919l151.8002 0c2.098114 0 4.1102905 0.8334656 5.593872 2.317047c1.4835815 1.4835815 2.317047 3.495758 2.317047 5.593872l0 31.64273c0 4.3690796 -3.5418396 7.910919 -7.910919 7.910919l-151.8002 0c-4.3690796 0 -7.910919 -3.5418396 -7.910919 -7.910919z" fill-rule="evenodd"/><path fill="#7f6000" d="m228.43633 293.6234l0 -13.359375l4.03125 0l2.421875 9.109375l2.390625 -9.109375l4.046875 0l0 13.359375l-2.5 0l0 -10.515625l-2.65625 10.515625l-2.59375 0l-2.640625 -10.515625l0 10.515625l-2.5 0zm21.150177 -3.078125l2.546875 0.421875q-0.484375 1.40625 -1.546875 2.140625q-1.0625 0.734375 -2.65625 0.734375q-2.515625 0 -3.734375 -1.65625q-0.953125 -1.3125 -0.953125 -3.328125q0 -2.40625 1.25 -3.765625q1.265625 -1.359375 3.1875 -1.359375q2.15625 0 3.40625 1.421875q1.25 1.421875 1.1875 4.375l-6.40625 0q0.03125 1.140625 0.609375 1.78125q0.59375 0.625 1.484375 0.625q0.59375 0 1.0 -0.328125q0.421875 -0.328125 0.625 -1.0625zm0.15625 -2.59375q-0.03125 -1.109375 -0.578125 -1.6875q-0.546875 -0.578125 -1.328125 -0.578125q-0.84375 0 -1.390625 0.609375q-0.546875 0.609375 -0.53125 1.65625l3.828125 0zm4.422592 -4.0l2.359375 0l0 1.3125q1.265625 -1.53125 3.015625 -1.53125q0.9375 0 1.609375 0.390625q0.6875 0.375 1.125 1.140625q0.640625 -0.765625 1.375 -1.140625q0.75 -0.390625 1.578125 -0.390625q1.0625 0 1.796875 0.4375q0.75 0.421875 1.109375 1.265625q0.265625 0.625 0.265625 2.0l0 6.1875l-2.5625 0l0 -5.53125q0 -1.4375 -0.265625 -1.859375q-0.34375 -0.546875 -1.09375 -0.546875q-0.53125 0 -1.015625 0.328125q-0.46875 0.328125 -0.671875 0.96875q-0.203125 0.625 -0.203125 2.0l0 4.640625l-2.5625 0l0 -5.296875q0 -1.421875 -0.140625 -1.828125q-0.140625 -0.40625 -0.421875 -0.609375q-0.28125 -0.203125 -0.78125 -0.203125q-0.59375 0 -1.0625 0.328125q-0.46875 0.3125 -0.6875 0.921875q-0.203125 0.59375 -0.203125 1.984375l0 4.703125l-2.5625 0l0 -9.671875zm16.197784 4.703125q0 -1.28125 0.625 -2.46875q0.625 -1.203125 1.78125 -1.828125q1.15625 -0.625 2.578125 -0.625q2.1875 0 3.59375 1.421875q1.40625 1.421875 1.40625 3.609375q0 2.1875 -1.421875 3.640625q-1.421875 1.4375 -3.5625 1.4375q-1.328125 0 -2.546875 -0.59375q-1.203125 -0.609375 -1.828125 -1.765625q-0.625 -1.171875 -0.625 -2.828125zm2.625 0.125q0 1.453125 0.671875 2.21875q0.6875 0.75 1.6875 0.75q1.0 0 1.671875 -0.75q0.6875 -0.765625 0.6875 -2.234375q0 -1.421875 -0.6875 -2.1875q-0.671875 -0.765625 -1.671875 -0.765625q-1.0 0 -1.6875 0.765625q-0.671875 0.765625 -0.671875 2.203125zm11.817841 4.84375l-2.5625 0l0 -9.671875l2.375 0l0 1.375q0.609375 -0.984375 1.09375 -1.28125q0.484375 -0.3125 1.109375 -0.3125q0.875 0 1.6875 0.484375l-0.796875 2.234375q-0.640625 -0.421875 -1.203125 -0.421875q-0.53125 0 -0.90625 0.296875q-0.375 0.296875 -0.59375 1.078125q-0.203125 0.765625 -0.203125 3.234375l0 2.984375zm3.5884094 -9.671875l2.71875 0l2.328125 6.859375l2.25 -6.859375l2.65625 0l-3.421875 9.3125l-0.609375 1.6875q-0.328125 0.84375 -0.640625 1.28125q-0.3125 0.453125 -0.703125 0.71875q-0.390625 0.28125 -0.96875 0.4375q-0.578125 0.15625 -1.3125 0.15625q-0.734375 0 -1.453125 -0.15625l-0.21875 -2.0q0.59375 0.125 1.078125 0.125q0.890625 0 1.3125 -0.53125q0.4375 -0.515625 0.671875 -1.328125l-3.6875 -9.703125z" fill-rule="nonzero"/><path fill="#000000" fill-opacity="0.0" d="m189.00262 68.15748c-12.5 0 -25.007874 31.031502 -25.0 62.062996c0.007873535 31.031494 12.531494 62.06299 25.062988 62.06299" fill-rule="evenodd"/><path stroke="#bf9000" stroke-width="1.0" stroke-linejoin="round" stroke-linecap="butt" d="m189.00262 68.15748c-12.5 0 -25.007874 31.031502 -25.0 62.062996c0.0039367676 15.515747 3.1368103 31.031494 7.835144 42.668304c2.3491516 5.818405 5.089691 10.667084 8.026138 14.061142c0.7341156 0.84851074 1.480484 1.6061249 2.2360077 2.2652435c0.37779236 0.32955933 0.7578583 0.63449097 1.1398468 0.9138489l0.17860413 0.12748718" fill-rule="evenodd"/><path fill="#bf9000" stroke="#bf9000" stroke-width="1.0" stroke-linecap="butt" d="m182.86037 191.81111l4.8293 -0.021514893l-3.7132874 -3.0877228z" fill-rule="evenodd"/><path fill="#ffe599" d="m106.11811 129.2126l0 0c0 -10.776077 8.735733 -19.51181 19.51181 -19.51181l0 0c5.174858 0 10.137764 2.0557022 13.796928 5.7148743c3.6591797 3.659172 5.7148895 8.622078 5.7148895 13.796936l0 0c0 10.776077 -8.735748 19.51181 -19.511818 19.51181l0 0c-10.776077 0 -19.51181 -8.735733 -19.51181 -19.51181z" fill-rule="evenodd"/><path fill="#7f6000" d="m121.89945 132.11948l2.1875 -0.21875q0.09375 0.734375 0.546875 1.171875q0.46875 0.4375 1.0625 0.4375q0.6875 0 1.15625 -0.5625q0.484375 -0.5625 0.484375 -1.6875q0 -1.046875 -0.46875 -1.578125q-0.46875 -0.53125 -1.234375 -0.53125q-0.9375 0 -1.6875 0.84375l-1.78125 -0.265625l1.125 -5.9531326l5.7968826 0l0 2.046875l-4.1406326 0l-0.34375 1.953125q0.734375 -0.375 1.5 -0.375q1.46875 0 2.4843826 1.0625076q1.015625 1.0625 1.015625 2.765625q0 1.40625 -0.828125 2.515625q-1.1093826 1.53125 -3.0937576 1.53125q-1.59375 0 -2.59375 -0.859375q-1.0 -0.859375 -1.1875 -2.296875z" fill-rule="nonzero"/><path fill="#ffd966" d="m199.12862 197.33583l0 0c0 -3.865921 3.1339417 -6.999878 6.9998627 -6.999878l113.49631 0c1.8565063 0 3.6369324 0.7374878 4.9496765 2.0502167c1.3127136 1.3127289 2.0502014 3.0931854 2.0502014 4.9496613l0 26.913635c0 3.8659363 -3.1339417 6.999878 -6.999878 6.999878l-113.49631 0c-3.865921 0 -6.9998627 -3.1339417 -6.9998627 -6.999878z" fill-rule="evenodd"/><path fill="#7f6000" d="m221.5049 217.71265l2.015625 -9.671875l1.65625 0l-0.34375 1.59375q0.921875 -1.03125 1.640625 -1.421875q0.734375 -0.390625 1.578125 -0.390625q0.90625 0 1.515625 0.484375q0.609375 0.46875 0.796875 1.328125q0.734375 -0.90625 1.546875 -1.359375q0.8125 -0.453125 1.71875 -0.453125q1.21875 0 1.8125 0.578125q0.609375 0.5625 0.609375 1.609375q0 0.4375 -0.203125 1.46875l-1.3125 6.234375l-1.640625 0l1.328125 -6.390625q0.171875 -0.78125 0.171875 -1.125q0 -0.46875 -0.296875 -0.734375q-0.296875 -0.28125 -0.84375 -0.28125q-0.75 0 -1.515625 0.453125q-0.765625 0.4375 -1.1875 1.171875q-0.421875 0.71875 -0.734375 2.21875l-0.984375 4.6875l-1.65625 0l1.375 -6.53125q0.140625 -0.671875 0.140625 -0.953125q0 -0.46875 -0.296875 -0.75q-0.296875 -0.296875 -0.765625 -0.296875q-0.703125 0 -1.484375 0.453125q-0.765625 0.4375 -1.25 1.234375q-0.46875 0.796875 -0.78125 2.265625l-0.953125 4.578125l-1.65625 0zm14.931427 3.734375l0.09375 -1.546875q0.515625 0.140625 1.0 0.140625q0.5 0 0.8125 -0.21875q0.40625 -0.3125 0.875 -1.140625l0.53125 -0.9375l-1.625 -9.703125l1.625 0l0.734375 4.890625q0.21875 1.453125 0.375 2.890625l4.328125 -7.78125l1.71875 0l-6.171875 10.953125q-0.890625 1.609375 -1.59375 2.125q-0.6875 0.515625 -1.578125 0.515625q-0.578125 0 -1.125 -0.1875zm10.1875 -7.75l0.359375 -1.640625l5.015625 0l-0.328125 1.640625l-5.046875 0zm6.259552 0.34375q0 -2.828125 1.671875 -4.6875q1.375 -1.53125 3.6093597 -1.53125q1.75 0 2.8125 1.09375q1.078125 1.09375 1.078125 2.953125q0 1.65625 -0.671875 3.09375q-0.671875 1.4375 -1.921875 2.203125q-1.25 0.765625 -2.625 0.765625q-1.1249847 0 -2.0468597 -0.484375q-0.921875 -0.484375 -1.421875 -1.359375q-0.484375 -0.890625 -0.484375 -2.046875zm1.65625 -0.15625q0 1.359375 0.65625 2.0625q0.65625 0.703125 1.6562347 0.703125q0.53125 0 1.046875 -0.203125q0.53125 -0.21875 0.96875 -0.65625q0.453125 -0.4375 0.765625 -1.0q0.3125 -0.5625 0.5 -1.203125q0.28125 -0.90625 0.28125 -1.734375q0 -1.3125 -0.65625 -2.03125q-0.65625 -0.734375 -1.65625 -0.734375q-0.78125 0 -1.421875 0.375q-0.625 0.375 -1.1406097 1.09375q-0.515625 0.703125 -0.765625 1.640625q-0.234375 0.9375 -0.234375 1.6875zm8.438217 3.828125l2.015625 -9.671875l1.453125 0l-0.40625 1.96875q0.75 -1.109375 1.453125 -1.640625q0.71875 -0.546875 1.46875 -0.546875q0.5 0 1.21875 0.359375l-0.671875 1.53125q-0.4375 -0.3125 -0.9375 -0.3125q-0.875 0 -1.78125 0.96875q-0.90625 0.953125 -1.4375 3.46875l-0.8125 3.875l-1.5625 0zm12.728302 -1.40625q-1.40625 1.625 -2.953125 1.625q-1.375 0 -2.296875 -1.015625q-0.90625 -1.015625 -0.90625 -2.953125q0 -1.765625 0.71875 -3.21875q0.734375 -1.46875 1.8125 -2.1875q1.09375 -0.734375 2.1875 -0.734375q1.796875 0 2.71875 1.734375l1.09375 -5.203125l1.640625 0l-2.78125 13.359375l-1.53125 0l0.296875 -1.40625zm-4.515625 -2.640625q0 1.0 0.203125 1.59375q0.203125 0.578125 0.671875 0.96875q0.484375 0.375 1.171875 0.375q1.109375 0 2.03125 -1.15625q1.21875 -1.546875 1.21875 -3.828125q0 -1.140625 -0.609375 -1.78125q-0.59375 -0.65625 -1.515625 -0.65625q-0.59375 0 -1.078125 0.265625q-0.484375 0.265625 -0.96875 0.90625q-0.46875 0.625 -0.796875 1.59375q-0.328125 0.96875 -0.328125 1.71875zm15.469452 0.765625l1.609375 0.15625q-0.34375 1.1875 -1.59375 2.265625q-1.234375 1.078125 -2.96875 1.078125q-1.0625 0 -1.96875 -0.5q-0.890625 -0.5 -1.359375 -1.4375q-0.46875 -0.953125 -0.46875 -2.15625q0 -1.59375 0.734375 -3.078125q0.734375 -1.484375 1.890625 -2.203125q1.171875 -0.734375 2.53125 -0.734375q1.734375 0 2.765625 1.078125q1.03125 1.0625 1.03125 2.921875q0 0.71875 -0.125 1.46875l-7.125 0q-0.046875 0.28125 -0.046875 0.5q0 1.359375 0.625 2.078125q0.625 0.71875 1.53125 0.71875q0.84375 0 1.65625 -0.546875q0.828125 -0.5625 1.28125 -1.609375zm-4.78125 -2.40625l5.421875 0q0.015625 -0.25 0.015625 -0.359375q0 -1.234375 -0.625 -1.890625q-0.625 -0.671875 -1.59375 -0.671875q-1.0625 0 -1.9375 0.734375q-0.859375 0.71875 -1.28125 2.1875zm8.063232 5.6875l2.015625 -9.671875l1.453125 0l-0.40625 1.96875q0.75 -1.109375 1.453125 -1.640625q0.71875 -0.546875 1.46875 -0.546875q0.5 0 1.21875 0.359375l-0.671875 1.53125q-0.4375 -0.3125 -0.9375 -0.3125q-0.875 0 -1.78125 0.96875q-0.90625 0.953125 -1.4375 3.46875l-0.8125 3.875l-1.5625 0zm6.368927 -3.3125l1.640625 -0.09375q0 0.703125 0.21875 1.21875q0.21875 0.5 0.796875 0.8125q0.59375 0.3125 1.375 0.3125q1.09375 0 1.640625 -0.4375q0.546875 -0.4375 0.546875 -1.015625q0 -0.4375 -0.328125 -0.8125q-0.328125 -0.390625 -1.640625 -0.953125q-1.3125 -0.5625 -1.671875 -0.78125q-0.609375 -0.375 -0.921875 -0.875q-0.3125 -0.515625 -0.3125 -1.171875q0 -1.140625 0.90625 -1.953125q0.921875 -0.828125 2.5625 -0.828125q1.828125 0 2.765625 0.84375q0.953125 0.84375 1.0 2.21875l-1.609375 0.109375q-0.046875 -0.875 -0.625 -1.390625q-0.578125 -0.515625 -1.65625 -0.515625q-0.84375 0 -1.328125 0.40625q-0.46875 0.390625 -0.46875 0.84375q0 0.453125 0.40625 0.796875q0.28125 0.234375 1.421875 0.734375q1.890625 0.8125 2.375 1.28125q0.78125 0.765625 0.78125 1.84375q0 0.71875 -0.4375 1.421875q-0.4375 0.6875 -1.34375 1.109375q-0.90625 0.40625 -2.140625 0.40625q-1.671875 0 -2.84375 -0.828125q-1.1875 -0.828125 -1.109375 -2.703125z" fill-rule="nonzero"/></g></svg>